<svg width="100" height="100" viewBox="0 0 100 100" xmlns="http://www.w3.org/2000/svg" class="app-icon">

            <!-- ===== DEFINITIONS ===== -->
            <defs>
               <linearGradient id="settings-bgGradientDark" x1="50" y1="0" x2="50" y2="100" gradientUnits="userSpaceOnUse">
                    <stop stop-color="#525755"/>
                    <stop offset="0.52" stop-color="#232625"/>
                    <stop offset="1" stop-color="#181A19"/>
               </linearGradient>
               <linearGradient id="settings-iconGradientDark" x1="50.4732" y1="7" x2="50.4732" y2="92.7662" gradientUnits="userSpaceOnUse">
                    <stop offset="0.177885" stop-color="#D2D2D2"/>
                    <stop offset="1" stop-color="#696969"/>
               </linearGradient>
               <linearGradient id="settings-bgGradient" x1="50.5432" y1="99" x2="50.4577" y2="0.999992" gradientUnits="userSpaceOnUse">
                    <stop stop-color="#8A8E92"/>
                    <stop offset="1" stop-color="#D1D5DB"/>
               </linearGradient>
               <linearGradient id="settings-circleGradient" x1="50.4732" y1="7" x2="50.4732" y2="92.7662" gradientUnits="userSpaceOnUse">
                    <stop stop-color="#4A4A4A"/>
                    <stop offset="1"/>
               </linearGradient>
               <linearGradient id="settings-iconGradient" x1="50.4732" y1="7" x2="50.4732" y2="92.7662" gradientUnits="userSpaceOnUse">
                    <stop stop-color="white"/>
                    <stop offset="0.370192" stop-color="#AFAFAF"/>
                    <stop offset="0.75" stop-color="#A9A9A9"/>
                    <stop offset="0.875" stop-color="#8F8F8F"/>
                    <stop offset="1" stop-color="#727272"/>
               </linearGradient>
            </defs>

            <!-- ================= DARK ================= -->
            <g class="icon-dark" style="display: none;">
                <!-- Dark gradient background -->
                <rect width="100" height="100" fill="url(#settings-bgGradientDark)" />

                <!-- Gray gradient gear icon -->
                <path fill-rule="evenodd" clip-rule="evenodd" d="M16.0662 68.3683L15.512 67.207C14.588 65.8986 15.0799 64.8423 16.4317 63.9736L18.3651 62.2824C20.2592 61.1574 19.3813 60.3299 19.0338 59.0972C18.7577 58.1176 18.393 56.1183 18.393 56.1183C18.2176 54.8694 18.1011 54.3275 16.75 54.0923L13.0863 53.2852C11.6296 53.2588 11.1673 52.4444 11.2754 51.0035L11.3215 47.0004C11.3327 46.388 11.4116 45.9831 11.5437 45.7102C11.6662 45.5183 11.8215 45.363 12.007 45.2447C12.3458 45.0887 13.3296 44.9736 13.3577 44.9761L14.7014 44.7155L16.0894 44.4877C17.2996 44.2997 17.8046 44.3077 18.1011 44.0419C18.4176 43.894 18.5201 43.5482 18.7099 42.4754L19.3539 39.5898C19.7204 38.632 19.9292 38.0511 19.8926 37.544C19.9553 37.2616 19.9025 37.0708 19.631 36.7817C19.4327 36.456 19.1162 36.0972 18.6592 35.6271L16.4018 33.8306C15.6616 33.4694 15.3725 32.9982 15.45 32.4074C15.5099 32.1327 15.6366 31.8127 15.8327 31.4261C15.994 31.1546 16.1155 30.8106 16.3662 30.5025L17.9218 28.013C18.5697 26.7162 19.2754 26.1419 20.5342 26.8613L23.7039 27.9778C24.9792 28.463 25.6373 28.0725 26.4285 27.0852L28.1116 25.2415C29.7817 23.5715 30.4725 23.6257 29.4317 21.6915L28.3972 19.0694C27.688 17.6324 28.3768 16.6743 29.8384 16.0169L30.868 15.5081L32.8933 14.4201C34.1891 13.4768 35.0944 13.7243 35.9901 15.0528L37.7197 17.1637C38.8827 19.0271 39.0736 18.9768 41.0359 17.9905L43.6349 17.1363C44.8845 16.9391 45.6993 16.3827 45.9106 15.0345L46.331 12.0739C46.331 10.6243 47.1398 10.1496 48.587 10.2306L52.6039 10.2032C53.394 10.2032 53.9158 10.2722 54.2634 10.431C54.6472 10.7173 54.882 11.2218 54.9746 12.0602L55.3722 14.8433C55.7595 17.0511 55.4877 16.6292 57.4461 17.1363L60.8852 18.0444C62.9655 18.7901 62.0461 18.5968 63.6092 17.0342C63.6092 17.0342 65.8081 14.5289 65.8687 14.4334C66.5014 13.6194 66.9729 13.6187 68.6018 14.581L72.1099 16.4391C73.4014 17.1081 73.8553 17.9271 73.1095 19.1683L71.8683 22.6803C71.357 23.9423 71.8556 24.0718 72.8331 24.8782L74.7032 26.9088C75.8905 28.7546 75.9637 28.9215 77.9264 27.9197L80.2007 27.1887C81.6581 26.5081 82.832 26.412 83.4655 27.8803L85.5004 31.2335C86.4243 32.5419 85.9324 33.5982 84.5806 34.4669L82.6472 36.1581C80.7532 37.2831 81.1944 37.7271 82.1493 39.7007L82.8884 42.3754C83.0637 43.6243 82.9116 44.1123 84.2627 44.3475L87.9264 45.1546C89.3831 45.181 89.8454 45.9954 89.7373 47.4363L89.6912 51.4394C89.6799 52.0518 89.6011 52.4567 89.469 52.7296C89.3465 52.9215 89.1912 53.0768 89.0056 53.1951C88.6669 53.3511 84.8394 54.0102 84.8394 54.0102C83.3542 54.4155 83.1792 54.182 83.0799 54.7387C82.9574 55.0021 82.9014 55.4324 82.688 56.1923L82.1423 58.7968C81.7078 59.9327 81.4623 60.4898 81.588 61.0268C81.5965 61.1197 81.6254 61.2032 81.6792 61.2884C81.8426 61.6437 82.1761 62.0289 82.7296 62.5982L85.3095 64.2873C85.9067 64.5785 86.1905 64.9715 86.2222 65.4451C86.2215 65.8419 86.0239 66.3567 85.5912 67.1144L85.5169 67.2423C85.4063 67.3989 85.3458 67.6025 85.213 67.7658L83.5747 70.5887C82.9268 71.8856 82.1137 72.3521 80.8549 71.6331L77.3092 70.4627C76.0338 69.9775 75.913 70.4754 75.1218 71.4627L73.1187 73.3602C71.2887 74.575 71.1225 74.6511 72.1634 76.5852L72.938 78.8342C73.6472 80.2711 73.093 81.7398 71.6313 82.3968L70.132 83.4243L68.8718 84.182C67.5761 85.1254 66.0261 84.8778 65.1299 83.5493L63.5616 81.7609C62.3986 79.8975 62.25 80.0046 60.2877 80.9905L57.6465 81.7884C56.3968 81.9856 55.9042 81.8433 55.693 83.1916L54.95 86.8507C54.95 88.3004 54.1412 88.775 52.694 88.694L48.6771 88.7215C47.8475 88.7215 47.3141 88.6454 46.9673 88.4694C46.7542 88.3099 46.5785 88.1021 46.4377 87.8415C46.3331 87.5289 46.3074 87.1215 46.2835 86.6028L45.9085 84.081C45.6539 82.6299 45.6609 82.1986 45.1394 81.9296C45.0046 81.7271 44.7479 81.7056 44.0588 81.5908C43.9715 81.5683 43.8789 81.5447 43.7806 81.5194L41.4644 80.9141L40.5887 80.663C40.5468 80.6511 40.506 80.6387 40.4658 80.6268C38.6616 79.9518 38.8989 79.7489 37.4025 81.2454L35.5134 83.482C35.3419 83.7398 35.1923 83.9549 35.0475 84.1254C34.3637 84.7334 33.3525 84.6525 32.1602 83.7271L28.9021 82.0014C27.6106 81.3324 27.3715 80.6746 28.1176 79.4334L29.3588 76.244C29.8701 74.982 29.1567 74.3687 28.1792 73.5623L26.3092 71.5317C25.1218 69.6859 25.0486 69.519 23.0859 70.5208L20.8116 71.2518C19.3542 71.9324 18.2648 71.944 17.6313 70.4757L16.0662 68.3683ZM54.7018 51.5549C52.5908 51.5549 51.0433 52.6074 50.2746 54.6021L45.4592 63.4514C44.9053 64.7194 45.3581 65.3053 46.7035 65.5525C54.3856 67.3739 63.8144 63.4292 66.3968 53.2521C66.7356 51.9173 66.4775 51.5556 65.7447 51.5549H54.7018ZM37.4049 30.5711L36.2673 28.5697C35.7289 27.4873 34.7039 27.2468 33.1732 27.8835C26.6975 33.4732 23.0746 40.7099 23.0792 50.0412C23.0803 57.8363 25.8697 65.0243 32.2528 70.5081C33.5155 71.5789 35.2778 71.8887 36.2666 70.5014L37.7673 68.0109C38.7715 66.2715 37.9694 66.5778 36.5472 65.2408C27.4289 56.6687 27.1532 43.3137 36.8602 33.6606C38.362 32.1673 38.7947 32.631 37.4049 30.5711ZM41.3331 70.6701L40.1986 72.6757C39.5479 73.6933 39.844 74.7106 41.1268 75.7282C48.9968 78.569 56.8669 78.0835 64.7373 73.368C71.313 69.431 76.0187 63.3623 77.5363 55.0113C77.8247 53.3666 77.2278 51.6687 75.5757 51.5042L72.7437 51.4493C70.787 51.4493 71.4363 51.9958 71.0007 53.9151C68.2102 66.2176 57.0771 73.2021 44.2049 69.587C42.2137 69.0278 42.394 68.4144 41.3331 70.6701ZM73.1665 46.9187L75.4532 46.9405C76.6496 47.0169 77.3884 46.2694 77.6504 44.6637C76.3095 36.4479 72.0852 29.8335 64.1947 25.2553C57.6046 21.4285 50.0701 20.2553 42.0986 22.9549C40.5334 23.4958 39.3504 24.8324 40.0063 26.3493L41.3275 28.8401C42.2729 30.5426 42.4331 29.7148 44.307 29.1697C56.319 25.6757 67.7532 32.0007 70.8401 44.9419C71.3176 46.944 70.6986 47.0813 73.1665 46.9187ZM46.8046 51.862C47.8944 50.0116 47.7852 48.1204 46.4602 46.4327L41.3092 37.7134C40.5007 36.5831 39.7613 36.6824 38.8535 37.7359C33.3155 43.5426 31.8518 53.812 39.3018 61.2496C40.2789 62.225 40.7243 62.1827 41.1032 61.5408L46.8046 51.862ZM50.3986 44.4437C51.3838 46.3197 53.0363 47.2067 55.1588 46.9637L65.2306 47.1352C66.6102 47.0387 66.9169 46.3644 66.5077 45.0539C64.5338 37.381 56.6461 30.832 46.4423 33.2616C45.1039 33.5803 44.9046 33.9775 45.2461 34.6289L50.3986 44.4437Z" fill="url(#settings-iconGradientDark)"/>
            </g>

            <!-- ================= TINTED ================= -->
            <g class="icon-tinted" style="display: none;">
                <!-- Solid background (theme controlled) -->
                <rect width="100" height="100" fill="var(--icon-bg, #D9D9D9)" />

                <!-- Tintable gear icon -->
                <path fill-rule="evenodd" clip-rule="evenodd" d="M16.0662 68.3683L15.512 67.207C14.588 65.8986 15.0799 64.8423 16.4317 63.9736L18.3651 62.2824C20.2592 61.1574 19.3813 60.3299 19.0338 59.0972C18.7577 58.1176 18.393 56.1183 18.393 56.1183C18.2176 54.8694 18.1011 54.3275 16.75 54.0923L13.0863 53.2852C11.6296 53.2588 11.1673 52.4444 11.2754 51.0035L11.3215 47.0004C11.3327 46.388 11.4116 45.9831 11.5437 45.7102C11.6662 45.5183 11.8215 45.363 12.007 45.2447C12.3458 45.0887 13.3296 44.9736 13.3577 44.9761L14.7014 44.7155L16.0894 44.4877C17.2996 44.2997 17.8046 44.3077 18.1011 44.0419C18.4176 43.894 18.5201 43.5482 18.7099 42.4754L19.3539 39.5898C19.7204 38.632 19.9292 38.0511 19.8926 37.544C19.9553 37.2616 19.9025 37.0708 19.631 36.7817C19.4327 36.456 19.1162 36.0972 18.6592 35.6271L16.4018 33.8306C15.6616 33.4694 15.3725 32.9982 15.45 32.4074C15.5099 32.1327 15.6366 31.8127 15.8327 31.4261C15.994 31.1546 16.1155 30.8106 16.3662 30.5025L17.9218 28.013C18.5697 26.7162 19.2754 26.1419 20.5342 26.8613L23.7039 27.9778C24.9792 28.463 25.6373 28.0725 26.4285 27.0852L28.1116 25.2415C29.7817 23.5715 30.4725 23.6257 29.4317 21.6915L28.3972 19.0694C27.688 17.6324 28.3768 16.6743 29.8384 16.0169L30.868 15.5081L32.8933 14.4201C34.1891 13.4768 35.0944 13.7243 35.9901 15.0528L37.7197 17.1637C38.8827 19.0271 39.0736 18.9768 41.0359 17.9905L43.6349 17.1363C44.8845 16.9391 45.6993 16.3827 45.9106 15.0345L46.331 12.0739C46.331 10.6243 47.1398 10.1496 48.587 10.2306L52.6039 10.2032C53.394 10.2032 53.9158 10.2722 54.2634 10.431C54.6472 10.7173 54.882 11.2218 54.9746 12.0602L55.3722 14.8433C55.7595 17.0511 55.4877 16.6292 57.4461 17.1363L60.8852 18.0444C62.9655 18.7901 62.0461 18.5968 63.6092 17.0342C63.6092 17.0342 65.8081 14.5289 65.8687 14.4334C66.5014 13.6194 66.9729 13.6187 68.6018 14.581L72.1099 16.4391C73.4014 17.1081 73.8553 17.9271 73.1095 19.1683L71.8683 22.6803C71.357 23.9423 71.8556 24.0718 72.8331 24.8782L74.7032 26.9088C75.8905 28.7546 75.9637 28.9215 77.9264 27.9197L80.2007 27.1887C81.6581 26.5081 82.832 26.412 83.4655 27.8803L85.5004 31.2335C86.4243 32.5419 85.9324 33.5982 84.5806 34.4669L82.6472 36.1581C80.7532 37.2831 81.1944 37.7271 82.1493 39.7007L82.8884 42.3754C83.0637 43.6243 82.9116 44.1123 84.2627 44.3475L87.9264 45.1546C89.3831 45.181 89.8454 45.9954 89.7373 47.4363L89.6912 51.4394C89.6799 52.0518 89.6011 52.4567 89.469 52.7296C89.3465 52.9215 89.1912 53.0768 89.0056 53.1951C88.6669 53.3511 84.8394 54.0102 84.8394 54.0102C83.3542 54.4155 83.1792 54.182 83.0799 54.7387C82.9574 55.0021 82.9014 55.4324 82.688 56.1923L82.1423 58.7968C81.7078 59.9327 81.4623 60.4898 81.588 61.0268C81.5965 61.1197 81.6254 61.2032 81.6792 61.2884C81.8426 61.6437 82.1761 62.0289 82.7296 62.5982L85.3095 64.2873C85.9067 64.5785 86.1905 64.9715 86.2222 65.4451C86.2215 65.8419 86.0239 66.3567 85.5912 67.1144L85.5169 67.2423C85.4063 67.3989 85.3458 67.6025 85.213 67.7658L83.5747 70.5887C82.9268 71.8856 82.1137 72.3521 80.8549 71.6331L77.3092 70.4627C76.0338 69.9775 75.913 70.4754 75.1218 71.4627L73.1187 73.3602C71.2887 74.575 71.1225 74.6511 72.1634 76.5852L72.938 78.8342C73.6472 80.2711 73.093 81.7398 71.6313 82.3968L70.132 83.4243L68.8718 84.182C67.5761 85.1254 66.0261 84.8778 65.1299 83.5493L63.5616 81.7609C62.3986 79.8975 62.25 80.0046 60.2877 80.9905L57.6465 81.7884C56.3968 81.9856 55.9042 81.8433 55.693 83.1916L54.95 86.8507C54.95 88.3004 54.1412 88.775 52.694 88.694L48.6771 88.7215C47.8475 88.7215 47.3141 88.6454 46.9673 88.4694C46.7542 88.3099 46.5785 88.1021 46.4377 87.8415C46.3331 87.5289 46.3074 87.1215 46.2835 86.6028L45.9085 84.081C45.6539 82.6299 45.6609 82.1986 45.1394 81.9296C45.0046 81.7271 44.7479 81.7056 44.0588 81.5908C43.9715 81.5683 43.8789 81.5447 43.7806 81.5194L41.4644 80.9141L40.5887 80.663C40.5468 80.6511 40.506 80.6387 40.4658 80.6268C38.6616 79.9518 38.8989 79.7489 37.4025 81.2454L35.5134 83.482C35.3419 83.7398 35.1923 83.9549 35.0475 84.1254C34.3637 84.7334 33.3525 84.6525 32.1602 83.7271L28.9021 82.0014C27.6106 81.3324 27.3715 80.6746 28.1176 79.4334L29.3588 76.244C29.8701 74.982 29.1567 74.3687 28.1792 73.5623L26.3092 71.5317C25.1218 69.6859 25.0486 69.519 23.0859 70.5208L20.8116 71.2518C19.3542 71.9324 18.2648 71.944 17.6313 70.4757L16.0662 68.3683ZM54.7018 51.5549C52.5908 51.5549 51.0433 52.6074 50.2746 54.6021L45.4592 63.4514C44.9053 64.7194 45.3581 65.3053 46.7035 65.5525C54.3856 67.3739 63.8144 63.4292 66.3968 53.2521C66.7356 51.9173 66.4775 51.5556 65.7447 51.5549H54.7018ZM37.4049 30.5711L36.2673 28.5697C35.7289 27.4873 34.7039 27.2468 33.1732 27.8835C26.6975 33.4732 23.0746 40.7099 23.0792 50.0412C23.0803 57.8363 25.8697 65.0243 32.2528 70.5081C33.5155 71.5789 35.2778 71.8887 36.2666 70.5014L37.7673 68.0109C38.7715 66.2715 37.9694 66.5778 36.5472 65.2408C27.4289 56.6687 27.1532 43.3137 36.8602 33.6606C38.362 32.1673 38.7947 32.631 37.4049 30.5711ZM41.3331 70.6701L40.1986 72.6757C39.5479 73.6933 39.844 74.7106 41.1268 75.7282C48.9968 78.569 56.8669 78.0835 64.7373 73.368C71.313 69.431 76.0187 63.3623 77.5363 55.0113C77.8247 53.3666 77.2278 51.6687 75.5757 51.5042L72.7437 51.4493C70.787 51.4493 71.4363 51.9958 71.0007 53.9151C68.2102 66.2176 57.0771 73.2021 44.2049 69.587C42.2137 69.0278 42.394 68.4144 41.3331 70.6701ZM73.1665 46.9187L75.4532 46.9405C76.6496 47.0169 77.3884 46.2694 77.6504 44.6637C76.3095 36.4479 72.0852 29.8335 64.1947 25.2553C57.6046 21.4285 50.0701 20.2553 42.0986 22.9549C40.5334 23.4958 39.3504 24.8324 40.0063 26.3493L41.3275 28.8401C42.2729 30.5426 42.4331 29.7148 44.307 29.1697C56.319 25.6757 67.7532 32.0007 70.8401 44.9419C71.3176 46.944 70.6986 47.0813 73.1665 46.9187ZM46.8046 51.862C47.8944 50.0116 47.7852 48.1204 46.4602 46.4327L41.3092 37.7134C40.5007 36.5831 39.7613 36.6824 38.8535 37.7359C33.3155 43.5426 31.8518 53.812 39.3018 61.2496C40.2789 62.225 40.7243 62.1827 41.1032 61.5408L46.8046 51.862ZM50.3986 44.4437C51.3838 46.3197 53.0363 47.2067 55.1588 46.9637L65.2306 47.1352C66.6102 47.0387 66.9169 46.3644 66.5077 45.0539C64.5338 37.381 56.6461 30.832 46.4423 33.2616C45.1039 33.5803 44.9046 33.9775 45.2461 34.6289L50.3986 44.4437Z" fill="#E7E9EB"/>
            </g>

            <!-- ================= DEFAULT ================= -->
            <g class="icon-default" style="display: block;">
                <!-- Gray gradient background -->
                <rect width="100" height="100" fill="url(#settings-bgGradient)" />

                <!-- Dark circle -->
                <path d="M50.4732 92.7662C73.9306 92.7662 92.9465 73.5668 92.9465 49.8831C92.9465 26.1994 73.9306 7 50.4732 7C27.0159 7 8 26.1994 8 49.8831C8 73.5668 27.0159 92.7662 50.4732 92.7662Z" fill="url(#settings-circleGradient)"/>

                <!-- White-gray gradient gear icon -->
                <path fill-rule="evenodd" clip-rule="evenodd" d="M16.0662 68.3683L15.512 67.207C14.588 65.8986 15.0799 64.8423 16.4317 63.9736L18.3651 62.2824C20.2592 61.1574 19.3813 60.3299 19.0338 59.0972C18.7577 58.1176 18.393 56.1183 18.393 56.1183C18.2176 54.8694 18.1011 54.3275 16.75 54.0923L13.0863 53.2852C11.6296 53.2588 11.1673 52.4444 11.2754 51.0035L11.3215 47.0004C11.3327 46.388 11.4116 45.9831 11.5437 45.7102C11.6662 45.5183 11.8215 45.363 12.007 45.2447C12.3458 45.0887 13.3296 44.9736 13.3577 44.9761L14.7014 44.7155L16.0894 44.4877C17.2996 44.2997 17.8046 44.3077 18.1011 44.0419C18.4176 43.894 18.5201 43.5482 18.7099 42.4754L19.3539 39.5898C19.7204 38.632 19.9292 38.0511 19.8926 37.544C19.9553 37.2616 19.9025 37.0708 19.631 36.7817C19.4327 36.456 19.1162 36.0972 18.6592 35.6271L16.4018 33.8306C15.6616 33.4694 15.3725 32.9982 15.45 32.4074C15.5099 32.1327 15.6366 31.8127 15.8327 31.4261C15.994 31.1546 16.1155 30.8106 16.3662 30.5025L17.9218 28.013C18.5697 26.7162 19.2754 26.1419 20.5342 26.8613L23.7039 27.9778C24.9792 28.463 25.6373 28.0725 26.4285 27.0852L28.1116 25.2415C29.7817 23.5715 30.4725 23.6257 29.4317 21.6915L28.3972 19.0694C27.688 17.6324 28.3768 16.6743 29.8384 16.0169L30.868 15.5081L32.8933 14.4201C34.1891 13.4768 35.0944 13.7243 35.9901 15.0528L37.7197 17.1637C38.8827 19.0271 39.0736 18.9768 41.0359 17.9905L43.6349 17.1363C44.8845 16.9391 45.6993 16.3827 45.9106 15.0345L46.331 12.0739C46.331 10.6243 47.1398 10.1496 48.587 10.2306L52.6039 10.2032C53.394 10.2032 53.9158 10.2722 54.2634 10.431C54.6472 10.7173 54.882 11.2218 54.9746 12.0602L55.3722 14.8433C55.7595 17.0511 55.4877 16.6292 57.4461 17.1363L60.8852 18.0444C62.9655 18.7901 62.0461 18.5968 63.6092 17.0342C63.6092 17.0342 65.8081 14.5289 65.8687 14.4334C66.5014 13.6194 66.9729 13.6187 68.6018 14.581L72.1099 16.4391C73.4014 17.1081 73.8553 17.9271 73.1095 19.1683L71.8683 22.6803C71.357 23.9423 71.8556 24.0718 72.8331 24.8782L74.7032 26.9088C75.8905 28.7546 75.9637 28.9215 77.9264 27.9197L80.2007 27.1887C81.6581 26.5081 82.832 26.412 83.4655 27.8803L85.5004 31.2335C86.4243 32.5419 85.9324 33.5982 84.5806 34.4669L82.6472 36.1581C80.7532 37.2831 81.1944 37.7271 82.1493 39.7007L82.8884 42.3754C83.0637 43.6243 82.9116 44.1123 84.2627 44.3475L87.9264 45.1546C89.3831 45.181 89.8454 45.9954 89.7373 47.4363L89.6912 51.4394C89.6799 52.0518 89.6011 52.4567 89.469 52.7296C89.3465 52.9215 89.1912 53.0768 89.0056 53.1951C88.6669 53.3511 84.8394 54.0102 84.8394 54.0102C83.3542 54.4155 83.1792 54.182 83.0799 54.7387C82.9574 55.0021 82.9014 55.4324 82.688 56.1923L82.1423 58.7968C81.7078 59.9327 81.4623 60.4898 81.588 61.0268C81.5965 61.1197 81.6254 61.2032 81.6792 61.2884C81.8426 61.6437 82.1761 62.0289 82.7296 62.5982L85.3095 64.2873C85.9067 64.5785 86.1905 64.9715 86.2222 65.4451C86.2215 65.8419 86.0239 66.3567 85.5912 67.1144L85.5169 67.2423C85.4063 67.3989 85.3458 67.6025 85.213 67.7658L83.5747 70.5887C82.9268 71.8856 82.1137 72.3521 80.8549 71.6331L77.3092 70.4627C76.0338 69.9775 75.913 70.4754 75.1218 71.4627L73.1187 73.3602C71.2887 74.575 71.1225 74.6511 72.1634 76.5852L72.938 78.8342C73.6472 80.2711 73.093 81.7398 71.6313 82.3968L70.132 83.4243L68.8718 84.182C67.5761 85.1254 66.0261 84.8778 65.1299 83.5493L63.5616 81.7609C62.3986 79.8975 62.25 80.0046 60.2877 80.9905L57.6465 81.7884C56.3968 81.9856 55.9042 81.8433 55.693 83.1916L54.95 86.8507C54.95 88.3004 54.1412 88.775 52.694 88.694L48.6771 88.7215C47.8475 88.7215 47.3141 88.6454 46.9673 88.4694C46.7542 88.3099 46.5785 88.1021 46.4377 87.8415C46.3331 87.5289 46.3074 87.1215 46.2835 86.6028L45.9085 84.081C45.6539 82.6299 45.6609 82.1986 45.1394 81.9296C45.0046 81.7271 44.7479 81.7056 44.0588 81.5908C43.9715 81.5683 43.8789 81.5447 43.7806 81.5194L41.4644 80.9141L40.5887 80.663C40.5468 80.6511 40.506 80.6387 40.4658 80.6268C38.6616 79.9518 38.8989 79.7489 37.4025 81.2454L35.5134 83.482C35.3419 83.7398 35.1923 83.9549 35.0475 84.1254C34.3637 84.7334 33.3525 84.6525 32.1602 83.7271L28.9021 82.0014C27.6106 81.3324 27.3715 80.6746 28.1176 79.4334L29.3588 76.244C29.8701 74.982 29.1567 74.3687 28.1792 73.5623L26.3092 71.5317C25.1218 69.6859 25.0486 69.519 23.0859 70.5208L20.8116 71.2518C19.3542 71.9324 18.2648 71.944 17.6313 70.4757L16.0662 68.3683ZM54.7018 51.5549C52.5908 51.5549 51.0433 52.6074 50.2746 54.6021L45.4592 63.4514C44.9053 64.7194 45.3581 65.3053 46.7035 65.5525C54.3856 67.3739 63.8144 63.4292 66.3968 53.2521C66.7356 51.9173 66.4775 51.5556 65.7447 51.5549H54.7018ZM37.4049 30.5711L36.2673 28.5697C35.7289 27.4873 34.7039 27.2468 33.1732 27.8835C26.6975 33.4732 23.0746 40.7099 23.0792 50.0412C23.0803 57.8363 25.8697 65.0243 32.2528 70.5081C33.5155 71.5789 35.2778 71.8887 36.2666 70.5014L37.7673 68.0109C38.7715 66.2715 37.9694 66.5778 36.5472 65.2408C27.4289 56.6687 27.1532 43.3137 36.8602 33.6606C38.362 32.1673 38.7947 32.631 37.4049 30.5711ZM41.3331 70.6701L40.1986 72.6757C39.5479 73.6933 39.844 74.7106 41.1268 75.7282C48.9968 78.569 56.8669 78.0835 64.7373 73.368C71.313 69.431 76.0187 63.3623 77.5363 55.0113C77.8247 53.3666 77.2278 51.6687 75.5757 51.5042L72.7437 51.4493C70.787 51.4493 71.4363 51.9958 71.0007 53.9151C68.2102 66.2176 57.0771 73.2021 44.2049 69.587C42.2137 69.0278 42.394 68.4144 41.3331 70.6701ZM73.1665 46.9187L75.4532 46.9405C76.6496 47.0169 77.3884 46.2694 77.6504 44.6637C76.3095 36.4479 72.0852 29.8335 64.1947 25.2553C57.6046 21.4285 50.0701 20.2553 42.0986 22.9549C40.5334 23.4958 39.3504 24.8324 40.0063 26.3493L41.3275 28.8401C42.2729 30.5426 42.4331 29.7148 44.307 29.1697C56.319 25.6757 67.7532 32.0007 70.8401 44.9419C71.3176 46.944 70.6986 47.0813 73.1665 46.9187ZM46.8046 51.862C47.8944 50.0116 47.7852 48.1204 46.4602 46.4327L41.3092 37.7134C40.5007 36.5831 39.7613 36.6824 38.8535 37.7359C33.3155 43.5426 31.8518 53.812 39.3018 61.2496C40.2789 62.225 40.7243 62.1827 41.1032 61.5408L46.8046 51.862ZM50.3986 44.4437C51.3838 46.3197 53.0363 47.2067 55.1588 46.9637L65.2306 47.1352C66.6102 47.0387 66.9169 46.3644 66.5077 45.0539C64.5338 37.381 56.6461 30.832 46.4423 33.2616C45.1039 33.5803 44.9046 33.9775 45.2461 34.6289L50.3986 44.4437Z" fill="url(#settings-iconGradient)"/>
            </g>

        </svg>
