<svg xmlns="http://www.w3.org/2000/svg" width="62" height="62" fill="none" viewBox="0 0 62 62">
  <path fill="#fff" d="M17.906.084c-.573.174-1.126.543-1.566 1.034-.726.808-.818 1.156-.87 3.5l-.04 2.015-6.508.03-6.518.031-.583.287A3.373 3.373 0 0 0 .205 8.75C.02 9.262 0 9.549 0 11.974c0 2.312.02 2.711.174 2.957.235.399.532.512 1.36.512.502 0 .717.04.717.122 0 .072.072 1.535.153 3.254l.205 4.349c.03.675.143 3.09.256 5.371.225 4.768.256 5.372.46 9.67.307 6.548.46 9.842.665 14.17.318 6.774.338 7.04.645 7.705a3.42 3.42 0 0 0 1.566 1.617l.5.245 24.956.031c27.667.02 25.416.082 26.961-.655.584-.276.952-.542 1.556-1.156.89-.91 1.299-1.617 1.637-2.844.368-1.34.184-3.07-.471-4.329-.102-.184-.88-1.412-1.75-2.711-.972-1.463-1.647-2.589-1.78-2.967-.194-.563-.205-.85-.205-4.87 0-2.344-.05-4.738-.112-5.321-.532-5.25-3.397-9.792-7.93-12.585-1.412-.87-3.53-1.71-5.126-2.037-.358-.071-.645-.163-.645-.194 0-.123 1.28-.92 2.129-1.34 1.166-.573 2.169-.88 3.294-1.013 1.054-.133 1.218-.195 1.525-.583.49-.625.184-1.198-.993-1.801-.89-.46-1.596-.983-1.913-1.392-.113-.163-.215-.532-.256-1.002-.123-1.208-.665-2.037-1.923-2.917-.84-.583-2.139-1.217-2.497-1.217-.348 0-1.207.532-1.913 1.187-.686.624-1.576 1.893-2.006 2.834-.706 1.565-1.3 4.041-1.463 6.129l-.072.951-.92.123c-2.671.348-5.208 1.28-7.183 2.64l-.798.552-.052-1.094c-.05-.993-.092-1.177-.419-1.862-.778-1.627-2.24-2.558-4.01-2.558-.993 0-1.802.286-2.733.94l-.245.185.255.276.246.287-.266-.235c-.143-.123-.287-.226-.327-.226-.164 0-.921 1.238-1.095 1.822-.205.644-.205.982-.205 14.13v13.475l-.614.9c-.87 1.26-1.289 2.15-1.494 3.131-.194.962-.143 2.047.113 2.917.184.614.716 1.657.982 1.954.113.113.164.245.123.276-.03.041-2.67.072-5.853.072-6.21 0-6.088.01-6.487-.532-.235-.307-.174.624-.89-14.356-.112-2.476-.276-5.903-.358-7.622-.082-1.72-.246-5.127-.358-7.572-.113-2.445-.297-6.293-.41-8.543a316.681 316.681 0 0 1-.214-4.912l-.02-.818 16.268-.051c17.773-.052 16.443 0 16.78-.645.215-.42.102-.921-.286-1.238l-.317-.266H2.149v-1.821c.01-1.965.05-2.139.573-2.487.286-.184.716-.194 21.61-.194 19.91 0 21.343.01 21.62.174.327.194.603.696.603 1.084 0 .317.491.86.87.952.348.082.9-.164 1.135-.522.45-.685-.112-2.312-1.064-3.09-.93-.757-.798-.747-7.92-.747h-6.322l-.01-1.412c0-1.903-.113-2.875-.39-3.417A3.748 3.748 0 0 0 31.362.32C30.85.044 30.85.044 28.159.013c-2.118-.03-2.732-.01-2.865.102-.112.092-.143.103-.082 0 .062-.092-.665-.123-3.489-.112-1.954 0-3.673.04-3.816.081Zm6.855.553c0 .02-.102.123-.225.235l-.235.195.194-.236c.184-.214.266-.276.266-.194Zm-.818.819c0 .02-.103.122-.226.235l-.235.194.195-.235c.184-.215.266-.276.266-.194Zm6.446.839c.542.286.614.562.614 2.558v1.79H17.702v-1.78c0-.982.04-1.903.101-2.047.052-.143.246-.358.43-.47.328-.195.522-.205 6.098-.205 4.953 0 5.802.02 6.058.154Zm13.608 11.47c1.126.736 1.371 1.074 1.473 2.077.072.746.358 1.391.9 2.005l.38.43-.38.112c-.582.174-2.21.993-3.018 1.525-.787.501-1.32.91-2.21 1.688-.307.276-.644.491-.757.491a.834.834 0 0 0-.368.102c-.154.082-.184.052-.154-.133.02-.122.103-.828.195-1.565.297-2.456.951-4.44 1.934-5.812.48-.675 1.105-1.289 1.32-1.289.071 0 .378.164.685.368Zm-40.62 8.482c-.246.256-.471.46-.502.46-.03 0 .154-.204.4-.46.245-.256.47-.46.5-.46.031 0-.153.204-.398.46Zm19.03-.103c.134.144.216.256.185.256-.02 0-.153-.112-.287-.256-.133-.143-.214-.255-.184-.255.02 0 .154.112.287.255Zm2.948.195c.49.256.94.798 1.094 1.33.113.358.154 1.003.154 2.128v1.617l-.624.747c-2.016 2.384-3.264 5.28-3.714 8.615-.134.92-.144.317-.123-6.037.01-7.653-.02-7.244.542-7.878.624-.706 1.852-.942 2.67-.522Zm14.14.297c0 .02-.123.143-.276.286l-.287.246.246-.287c.235-.256.317-.327.317-.245Zm-.819.818c0 .02-.102.123-.225.235l-.235.195.194-.236c.185-.214.266-.276.266-.194Zm4.36 1.044c3.325.44 6.466 2.128 8.717 4.686a14.633 14.633 0 0 1 3.315 6.466c.235 1.034.266 1.883.317 7.777l.03 3.683.297.87c.246.696.604 1.32 1.934 3.325 2.026 3.05 2.149 3.305 2.149 4.451.01 1.003-.174 1.606-.727 2.394l-.358.502.758.777.746.778-.787-.757-.778-.757-.348.266c-.194.153-.624.399-.951.552l-.614.287-8.083.03c-7.45.02-8.094.041-8.278.205-.205.164-.205.164-.072-.01.133-.164-.276-.174-8.298-.174-9.321 0-9.106.01-10.211-.655-.675-.41-1.433-1.35-1.668-2.087-.235-.706-.225-1.924.02-2.61.103-.296.88-1.575 1.72-2.844 1.637-2.456 1.944-2.988 2.24-3.878.154-.501.184-1.176.256-5.832.072-5.648.082-5.75.655-7.572a14.669 14.669 0 0 1 1.617-3.407c.747-1.156.787-1.197 2.015-2.435 2.272-2.282 5.157-3.683 8.441-4.113.87-.113 4.912-.061 5.945.082Zm-15.717 2.558c.133.143.215.255.184.255-.02 0-.153-.112-.286-.255-.133-.144-.215-.256-.184-.256.02 0 .153.112.286.256Zm.768.767c.102.113.163.205.133.205-.031 0-.133-.092-.236-.205-.102-.113-.164-.205-.133-.205.03 0 .133.093.236.205Zm-4.144 10.365c0 .02-.123.143-.277.286l-.286.246.245-.286c.236-.256.318-.328.318-.246Zm-.819.819c0 .02-.123.143-.276.286l-.287.245.246-.286c.235-.256.317-.327.317-.245Zm-.819.818c0 .02-.122.143-.276.286l-.286.246.245-.286c.236-.256.317-.328.317-.246Zm-.818.819c0 .02-.154.163-.327.337l-.338.297.297-.338c.286-.307.368-.378.368-.296Zm-.819.818c0 .02-.122.143-.276.287l-.286.245.245-.286c.236-.256.317-.328.317-.246Zm-.05 16.954c.102.113.163.205.132.205-.03 0-.133-.092-.235-.205-.102-.112-.164-.204-.133-.204.03 0 .133.092.235.204Zm.777.788c.133.164.123.174-.03.041-.103-.072-.185-.153-.185-.174 0-.082.082-.03.215.133Zm.706.696c.133.143.215.256.184.256-.02 0-.154-.113-.287-.256-.133-.143-.214-.256-.184-.256.02 0 .154.113.287.256Zm.818.819c.133.143.215.255.184.255-.02 0-.153-.112-.286-.255-.133-.144-.215-.256-.184-.256.02 0 .153.112.286.255Zm16.985-.226c0 .02-.123.144-.276.287l-.286.245.245-.286c.235-.256.317-.328.317-.246Zm-16.166 1.044c.133.143.215.256.184.256-.02 0-.153-.113-.286-.256-.133-.143-.215-.256-.185-.256.02 0 .154.113.287.256Zm15.348-.225c0 .02-.154.164-.328.338l-.337.296.296-.337c.287-.307.369-.379.369-.297Z"/>
  <path fill="#fff" d="M12.227 20.047c-1.412.348-2.63 1.463-3.141 2.865l-.235.665-.02 13.71c-.011 8.063.02 13.957.07 14.315.226 1.402 1.218 2.722 2.528 3.346.655.317.767.337 1.821.337 1.116.01 1.156 0 1.914-.378 1.279-.624 2.179-1.78 2.435-3.131.133-.737.143-27.503 0-28.26-.307-1.648-1.678-3.09-3.295-3.47-.501-.112-1.627-.112-2.077 0Zm1.944 2.292c.594.276.9.583 1.115 1.095.226.552.266 27.892.041 28.434-.194.46-.87 1.064-1.36 1.228-.778.256-1.965-.092-2.395-.706-.563-.788-.532.071-.522-14.765 0-14.734-.02-13.966.512-14.713.276-.389 1.156-.819 1.678-.819.235 0 .655.113.931.246Z"/>
</svg>
